<svg width="112" height="112" viewBox="0 0 56 56" fill="none" xmlns="http://www.w3.org/2000/svg">
<path fill-rule="evenodd" clip-rule="evenodd" d="M43.1663 21.053C43.1663 28.8761 36.9568 38.0171 32.4505 43.3902C31.3713 44.6772 27.9997 48.4367 27.9997 48.4367C27.9997 48.4367 12.833 32.492 12.833 20.8024C12.833 12.4245 19.2263 5.63208 27.9997 5.63208C36.773 5.63208 43.1663 12.6723 43.1663 21.053ZM36.1674 20.276C36.1674 24.6308 32.511 28.1611 28.0007 28.1611C23.4904 28.1611 19.8341 24.6308 19.8341 20.276C19.8341 15.9212 23.4904 12.3909 28.0007 12.3909C32.511 12.3909 36.1674 15.9212 36.1674 20.276Z" fill="#F2F2F2"/>
</svg>
